<svg xmlns="http://www.w3.org/2000/svg" viewBox="0 0 32 32" fill="none">
  <rect width="32" height="32" rx="8" fill="#2563EB"/>
  <path d="M8 12C8 10.895 8.895 10 10 10H14C14 10 16 10 16 12V20C16 20 16 22 14 22H10C8.895 22 8 21.105 8 20V12Z" fill="white" opacity="0.9"/>
  <path d="M18 14L22.553 11.724C23.25 11.375 24 11.882 24 12.618V19.382C24 20.118 23.25 20.625 22.553 20.276L18 18V14Z" fill="white" opacity="0.7"/>
  <circle cx="12" cy="16" r="1.5" fill="#2563EB"/>
  <rect x="20" y="7" width="6" height="6" rx="3" fill="#22C55E"/>
  <path d="M22 10L23 11L25 9" stroke="white" stroke-width="1.5" stroke-linecap="round" stroke-linejoin="round"/>
</svg>
